<svg width="27" height="28" viewBox="0 0 27 28" fill="none" xmlns="http://www.w3.org/2000/svg">
<g clip-path="url(#clip0_128_129)">
<path d="M22.8575 5.06319C21.1067 4.25121 19.2593 3.67169 17.3613 3.33908C17.3441 3.33615 17.3264 3.33868 17.3107 3.34631C17.295 3.35395 17.282 3.36631 17.2735 3.38171C17.0356 3.80805 16.7723 4.3657 16.5884 4.80227C14.5425 4.4885 12.4614 4.4885 10.4155 4.80227C10.2104 4.31594 9.97824 3.84167 9.72029 3.38171C9.71163 3.36648 9.69861 3.35426 9.68295 3.34665C9.66729 3.33904 9.64971 3.3364 9.63253 3.33908C7.7341 3.66991 5.88628 4.24974 4.13635 5.06319C4.12137 5.06896 4.10885 5.07981 4.10091 5.09389C0.601035 10.3788 -0.359152 15.5341 0.11166 20.6246C0.113348 20.6484 0.128535 20.6723 0.147098 20.6877C2.18513 22.2133 4.46472 23.3781 6.88866 24.1325C6.90577 24.1379 6.92416 24.1377 6.94116 24.1319C6.95815 24.1261 6.97287 24.1149 6.98316 24.1001C7.50291 23.3838 7.96528 22.6283 8.36353 21.8337C8.37184 21.8173 8.37468 21.7986 8.37164 21.7805C8.3686 21.7624 8.35983 21.7457 8.34666 21.733C8.33794 21.7247 8.32759 21.7183 8.31629 21.7143C7.58924 21.4319 6.88511 21.0926 6.21029 20.6996C6.19144 20.6888 6.17742 20.6711 6.17114 20.6501C6.16485 20.6292 6.16679 20.6066 6.17654 20.587C6.18228 20.5743 6.19096 20.5632 6.20185 20.5546C6.3436 20.4472 6.48535 20.3346 6.62035 20.2221C6.63227 20.2124 6.64658 20.2062 6.66174 20.2041C6.6769 20.202 6.69234 20.2041 6.70641 20.2102C11.126 22.2498 15.91 22.2498 20.2756 20.2102C20.2902 20.2038 20.3062 20.2015 20.3219 20.2036C20.3377 20.2057 20.3526 20.2121 20.365 20.2221C20.5 20.3346 20.6418 20.4472 20.7835 20.5546C20.795 20.5631 20.8042 20.5743 20.8104 20.5873C20.8165 20.6003 20.8194 20.6146 20.8187 20.629C20.8181 20.6433 20.8139 20.6573 20.8066 20.6696C20.7992 20.6819 20.789 20.6922 20.7768 20.6996C20.1035 21.0962 19.3985 21.4351 18.6691 21.7126C18.6575 21.7168 18.6469 21.7236 18.6381 21.7325C18.6294 21.7413 18.6227 21.752 18.6185 21.7637C18.6146 21.7751 18.613 21.7872 18.6139 21.7992C18.6147 21.8112 18.618 21.823 18.6235 21.8337C19.0285 22.6266 19.4926 23.3838 20.0022 24.1001C20.0125 24.1149 20.0272 24.1261 20.0442 24.1319C20.0612 24.1377 20.0796 24.1379 20.0967 24.1325C22.5247 23.3805 24.808 22.2155 26.8484 20.6877C26.8586 20.6805 26.8671 20.6711 26.8733 20.6602C26.8794 20.6493 26.883 20.6371 26.8838 20.6246C27.4475 14.7394 25.9405 9.62672 22.8912 5.09559C22.8881 5.08811 22.8836 5.08136 22.8777 5.07578C22.8719 5.0702 22.865 5.06591 22.8575 5.06319ZM9.02335 17.5242C7.69191 17.5242 6.59672 16.2895 6.59672 14.7752C6.59672 13.2591 7.67166 12.0244 9.02335 12.0244C10.3852 12.0244 11.4702 13.2694 11.45 14.7752C11.45 16.2895 10.375 17.5242 9.02335 17.5242ZM17.9941 17.5242C16.6643 17.5242 15.5675 16.2895 15.5675 14.7752C15.5675 13.2591 16.6424 12.0244 17.9941 12.0244C19.3559 12.0244 20.4427 13.2694 20.4207 14.7752C20.4207 16.2895 19.3559 17.5242 17.9941 17.5242Z" fill="white"/>
</g>
<defs>
<clipPath id="clip0_128_129">
<rect width="27" height="27.2857" fill="white" transform="translate(0 0.105957)"/>
</clipPath>
</defs>
</svg>
